trial_2_ID.mot
nRows=9
nColumns=42

name trial_2_ID.mot
datacolumns 42
datarows 9
range 4.4800000000 4.5600000000
endheader
time	pelvis_tilt_moment	pelvis_list_moment	pelvis_rotation_moment	pelvis_tx_force	pelvis_ty_force	pelvis_tz_force	hip_flexion_r_moment	hip_adduction_r_moment	hip_rotation_r_moment	knee_angle_r_moment	knee_vv_r_moment	knee_rot_r_moment	ankle_angle_r_moment	subtalar_angle_r_moment	mtp_angle_r_moment	hip_flexion_l_moment	hip_adduction_l_moment	hip_rotation_l_moment	knee_angle_l_moment	knee_vv_l_moment	knee_rot_l_moment	ankle_angle_l_moment	subtalar_angle_l_moment	mtp_angle_l_moment	lumbar_extension_moment	lumbar_bending_moment	lumbar_rotation_moment	arm_flex_r_moment	arm_add_r_moment	arm_rot_r_moment	elbow_flex_r_moment	pro_sup_r_moment	wrist_flex_r_moment	wrist_dev_r_moment	arm_flex_l_moment	arm_add_l_moment	arm_rot_l_moment	elbow_flex_l_moment	pro_sup_l_moment	wrist_flex_l_moment	wrist_dev_l_moment
        4.4800000000	       13.1121086200	       -0.9581794600	       -2.1135170000	        5.6547903600	        9.0370449700	       19.3972099900	       -4.0080471800	      -47.2792168600	        3.7403648100	       13.0824759600	      -21.8809232300	       -2.4676684000	      -24.7331396800	        6.8275925300	        0.0273445400	        9.5464553600	        0.4917541100	       -1.1989276600	        3.2123312100	       -1.2731390500	       -0.1222410500	        0.8078765100	       -0.0203752200	        0.0323701500	       23.6134371400	       -0.0420154000	       -2.3999163900	       -1.2642016700	       -1.2876824800	       -0.0150941200	       -0.0992072600	       -0.0006214500	        0.0299309800	        0.0194535800	        0.2371581200	       -2.2089046300	       -0.0445156200	       -0.4404551800	       -0.0143058900	       -0.0604242300	        0.0063206300	
        4.4900000000	       11.5909735800	        0.0350050500	       -2.0923331900	        6.5545128800	       10.7803903700	       20.3362638700	       -3.4862618800	      -46.6559580100	        3.5919261100	       12.0298204600	      -21.4419048900	       -2.4007734600	      -26.0594849800	        6.9962120200	        0.0270033500	        8.8850609800	        0.0821562200	       -0.9754078600	        2.7930945200	       -0.9971585000	       -0.0927557200	        0.8033804400	       -0.0430047100	        0.0323683100	       22.3698632600	        0.7997181600	       -2.5279855500	       -1.2959097500	       -1.2909485800	       -0.0069648700	       -0.1018315000	        0.0001102000	        0.0311516300	        0.0204028500	        0.3569532600	       -2.1166509800	       -0.0430782200	       -0.4049741300	       -0.0152895300	       -0.0621007200	        0.0036939700	
        4.5000000000	        9.9273898800	        1.1656832600	       -2.1584484300	        8.3990301800	       11.3702048100	       20.1510056500	       -3.0534837300	      -45.8680331400	        3.4118379700	       10.8044508100	      -20.9215805600	       -2.3408978100	      -27.5099393700	        7.1968315300	        0.0266537500	        8.3449554300	       -0.3190216400	       -0.7254867000	        2.4039085200	       -0.6988830700	       -0.0608685100	        0.8219485800	       -0.0716123300	        0.0333133100	       20.8244191600	        1.5470350300	       -2.6182995700	       -1.3078575600	       -1.2914562100	        0.0039583500	       -0.1064845800	        0.0014223800	        0.0320660700	        0.0217363700	        0.4772639100	       -2.0103997800	       -0.0465083200	       -0.3607255100	       -0.0169468500	       -0.0626761500	        0.0001773400	
        4.5100000000	        8.2291750100	        2.3621140800	       -2.3428766300	       10.8659168000	       10.9900324000	       18.8453510000	       -2.7029390500	      -44.9350223800	        3.2077331300	        9.4329329400	      -20.3388647000	       -2.2898613800	      -29.0700620500	        7.4221095200	        0.0263540200	        7.9102025800	       -0.6936845400	       -0.4563022100	        2.0341555200	       -0.3854942600	       -0.0287636300	        0.8565682800	       -0.1040331900	        0.0349134900	       19.1244896500	        2.1796450200	       -2.7049573000	       -1.3002896400	       -1.2895935000	        0.0169025300	       -0.1120355300	        0.0032023000	        0.0326638000	        0.0233344800	        0.5913522800	       -1.8980430500	       -0.0534506500	       -0.3118756400	       -0.0189954300	       -0.0622894000	       -0.0038097100	
        4.5200000000	        6.5614318900	        3.5915119300	       -2.6729505600	       13.5608400500	        9.9041269200	       16.4496755700	       -2.4105986200	      -43.8830596900	        2.9858959700	        7.9531155600	      -19.7132032900	       -2.2490321700	      -30.7136481700	        7.6624859600	        0.0261438600	        7.5336751900	       -1.0574037400	       -0.1636803500	        1.6650444700	       -0.0498563400	        0.0025636500	        0.9008864300	       -0.1390321700	        0.0369052900	       17.3992328900	        2.6875665600	       -2.8222168800	       -1.2741990500	       -1.2857125800	        0.0308746900	       -0.1170320900	        0.0052873500	        0.0329601200	        0.0250176600	        0.6934963100	       -1.7879827500	       -0.0621559500	       -0.2628053200	       -0.0210990400	       -0.0611475000	       -0.0078138500	
        4.5300000000	        4.9369025700	        4.8584696300	       -3.1595225300	       16.0589630500	        8.4210214700	       13.0372572500	       -2.1413258300	      -42.7442683300	        2.7508988900	        6.4072180800	      -19.0637363300	       -2.2195375300	      -32.4102915900	        7.9079186800	        0.0260425100	        7.1414612000	       -1.4518161200	        0.1627381800	        1.2708452400	        0.3245033700	        0.0329233900	        0.9497049000	       -0.1760741200	        0.0390823100	       15.7474511400	        3.0714192400	       -2.9981595000	       -1.2311313600	       -1.2796249500	        0.0448299000	       -0.1198227900	        0.0074870100	        0.0330053600	        0.0265714300	        0.7800331800	       -1.6880188500	       -0.0707334800	       -0.2174854100	       -0.0229191900	       -0.0595034900	       -0.0114159100	
        4.5400000000	        3.3222497400	        6.1844260600	       -3.7861850000	       17.9386448900	        6.8499100200	        8.7467973600	       -1.8563006200	      -41.5564347000	        2.5058365400	        4.8353123700	      -18.4087535000	       -2.2024091600	      -34.1324914200	        8.1496408800	        0.0260502000	        6.6416954300	       -1.9265464400	        0.5305336900	        0.8214904300	        0.7536491400	        0.0621588200	        0.9990622200	       -0.2147592600	        0.0413095100	       14.2358169700	        3.3392263200	       -3.2500448900	       -1.1732390200	       -1.2705745500	        0.0578020200	       -0.1188571800	        0.0096055500	        0.0328741700	        0.0277865200	        0.8496769900	       -1.6043228200	       -0.0774093800	       -0.1789699400	       -0.0241618600	       -0.0576237500	       -0.0142874900	
        4.5500000000	        1.6593674200	        7.5744418500	       -4.5046263800	       18.8125172700	        5.4597030900	        3.8047850400	       -1.5205712100	      -40.3628632700	        2.2527405200	        3.2692858900	      -17.7656655200	       -2.1988894800	      -35.8620758300	        8.3813248200	        0.0261518800	        5.9388012800	       -2.5138833200	        0.9344348800	        0.2868797500	        1.2408189800	        0.0892248000	        1.0460275700	       -0.2540937400	        0.0435238700	       12.9055009300	        3.5013375300	       -3.5819378300	       -1.1035083200	       -1.2576218200	        0.0689794800	       -0.1130647100	        0.0114628300	        0.0326412600	        0.0285032200	        0.9029601700	       -1.5406806600	       -0.0807485800	       -0.1491224000	       -0.0246101800	       -0.0557456800	       -0.0162218800	
        4.5600000000	       -0.1053113800	        8.9834894900	       -5.2387092200	       18.3668117700	        4.4460917100	       -1.4582505000	       -1.1090936300	      -39.2114117200	        1.9929371400	        1.7284362200	      -17.1510495800	       -2.2107558000	      -37.5947527600	        8.5996171000	        0.0263221900	        4.9521629400	       -3.2022945400	        1.3489385700	       -0.3576538500	        1.7647225600	        0.1114529900	        1.0883209800	       -0.2918358500	        0.0457224100	       11.7815618200	        3.5661353500	       -3.9846692900	       -1.0259421700	       -1.2402130500	        0.0777301000	       -0.1021728900	        0.0129110500	        0.0323551500	        0.0286467000	        0.9411723700	       -1.4981082000	       -0.0798084500	       -0.1285837600	       -0.0241403900	       -0.0540356700	       -0.0171383100	
